<?xml version="1.0" encoding="utf-8" ?>
<svg xmlns="http://www.w3.org/2000/svg" xmlns:xlink="http://www.w3.org/1999/xlink" width="1433" height="462">
	<path fill="#101010" d="M1235.83 94.8499C1239.97 94.5894 1244.14 94.3362 1248.26 94.8813C1251.98 95.3732 1255.81 96.1129 1258.22 99.2387C1258.59 100.302 1258.82 101.2 1258.55 102.321C1256.42 111.402 1240.7 104.393 1233.34 105.554C1229.05 106.23 1224.26 109.217 1220.56 111.497C1203.48 122.021 1190.41 141.775 1187.43 161.674C1185.95 171.617 1186.53 182.029 1186.55 192.054L1186.54 224.935C1186.59 232.098 1187.92 241.815 1186.12 248.715C1185.69 250.348 1184.92 251.492 1183.46 252.33Q1183.13 252.521 1182.78 252.678Q1182.43 252.835 1182.07 252.957Q1181.7 253.079 1181.33 253.164Q1180.95 253.249 1180.57 253.296Q1180.19 253.344 1179.81 253.354Q1179.43 253.363 1179.05 253.335Q1178.66 253.307 1178.29 253.24Q1177.91 253.174 1177.54 253.071C1173.42 250.274 1175.26 246.028 1173.33 242.248C1173.26 242.114 1173.19 241.983 1173.12 241.85C1173.91 240.695 1174.21 239.368 1174.3 237.987C1175.03 226.269 1174.38 214.123 1174.39 202.352L1174.46 131.471C1174.45 122.52 1172.96 112.052 1174.82 103.31C1175.84 101.613 1177.2 100.314 1179.12 99.6637C1180.45 99.2121 1181.71 99.2332 1182.93 99.9156C1184.49 100.786 1185.41 102.828 1185.89 104.47C1187.23 109.057 1187.81 132.411 1185.58 136.177C1185.51 136.3 1185.43 136.42 1185.35 136.542C1188.39 134.014 1190.7 129.278 1192.87 125.921C1204.63 107.682 1214.43 99.6991 1235.83 94.8499Z"/>
	<path fill="#101010" d="M310.946 94.7303C315.275 94.3281 325.06 93.9294 328.531 96.8081C329.851 97.9027 330.542 99.4428 330.69 101.134C330.854 102.999 330.305 104.927 329.036 106.323C325.356 110.367 317.343 105.024 312.405 105.15C302.144 105.413 292.337 111.056 284.802 117.671C273.759 127.368 265.007 141.374 261.333 155.614C257.033 172.276 262.355 246.67 256.509 252.365Q256.212 252.655 255.865 252.883Q255.517 253.11 255.133 253.267Q254.748 253.423 254.341 253.503Q253.933 253.582 253.518 253.582C251.891 253.579 250.514 252.771 249.396 251.624C246.271 248.416 246.921 244.689 247.034 240.578L247.064 143.371C247.135 132.006 245.925 119.685 246.868 108.455C247.085 105.876 247.524 102.915 249.373 100.963C250.278 100.007 251.481 99.4076 252.803 99.3886C254.441 99.3651 255.887 99.8111 257.058 101.031C260.543 104.662 259.495 130.483 259.585 137.025C262.57 130.337 266.236 123.814 270.733 118.018C281.132 104.615 294.191 96.8678 310.946 94.7303Z"/>
	<path fill="#101010" d="M1291.37 94.8495C1292.59 94.7377 1293.86 94.7849 1295.07 94.9143C1299.92 95.4328 1299.94 99.9716 1299.92 103.8L1299.96 167.03C1299.95 181.215 1298.89 196.279 1301.33 210.305C1302.64 217.815 1305.15 225.669 1309.95 231.719C1316.02 239.367 1325.44 243.169 1334.94 244.19C1350.87 245.905 1366.23 241.451 1378.66 231.285C1386.25 225.076 1392.82 217.006 1395.88 207.589C1400.08 194.673 1397.98 135.261 1397.95 118.087C1397.94 111.935 1397.17 104.76 1398.11 98.7423C1398.34 97.2883 1399.27 96.2452 1400.49 95.4809C1401.82 94.6378 1403.97 94.4284 1405.48 94.8372C1406.89 95.2189 1408.47 96.2714 1409.17 97.5827C1411.15 101.28 1410.68 231.244 1409.77 245.571Q1409.44 251.161 1408.41 256.665Q1407.38 262.168 1405.66 267.498C1402.71 276.475 1394.61 292.649 1385.72 297.148C1384.07 300.295 1377.81 304.154 1374.66 305.961C1356.48 316.396 1332.18 317.277 1312.31 311.75C1305.39 309.827 1293.58 306.105 1290.03 299.467C1289.36 298.228 1289.12 296.935 1289.55 295.577C1290.01 294.108 1291.59 292.407 1292.96 291.742C1296.68 289.931 1311.17 298.724 1316.1 300.372C1321.99 302.339 1327.24 302.197 1333.33 302.349C1345.04 302.643 1354.23 303.215 1365.06 297.739C1379.1 290.638 1389.31 277.741 1394.08 262.862C1396.17 256.352 1400.19 230.984 1397.32 225.375C1394.49 232.429 1386.51 239.3 1380.48 243.676C1366.05 254.142 1349.03 258.59 1331.39 255.747C1317.8 253.556 1306.66 248.464 1298.47 237.006C1293.24 229.687 1290.44 221.153 1288.99 212.347C1285.63 192.072 1287.69 163.461 1287.6 142.342C1287.54 130.861 1286.05 110.8 1287.91 100.322C1288.38 97.7233 1289.2 96.357 1291.37 94.8495Z"/>
	<path fill="#101010" d="M123.698 34.5876C137.224 33.0307 152.064 35.2223 165.218 38.2612C173.22 40.1099 191.359 45.9047 195.565 53.0624C196.409 54.5005 196.751 56.2104 196.304 57.8364C195.952 59.1186 195.086 60.4958 193.93 61.1496C192.438 61.9935 191.124 61.9997 189.476 61.6062C181.095 59.6041 171.048 53.0444 161.018 50.3226C135.627 43.4323 105.914 45.9642 82.9256 59.1633Q81.9302 59.7238 80.9489 60.3088Q79.9677 60.8938 79.0012 61.5029Q78.0347 62.1119 77.0836 62.7447Q76.1325 63.3775 75.1973 64.0337Q74.2621 64.6898 73.3434 65.3689Q72.4247 66.048 71.5231 66.7495Q70.6214 67.4511 69.7374 68.1748Q68.8534 68.8985 67.9876 69.6438Q67.1217 70.3892 66.2745 71.1557Q65.4274 71.9222 64.5994 72.7095Q63.7715 73.4967 62.9632 74.3042Q62.155 75.1117 61.367 75.9389Q60.5789 76.7662 59.8116 77.6127Q59.0442 78.4592 58.298 79.3244Q57.5518 80.1896 56.8273 81.073Q56.1027 81.9564 55.4002 82.8574Q54.6977 83.7585 54.0177 84.6767Q53.3376 85.5948 52.6805 86.5295Q52.0234 87.4642 51.3896 88.4149Q50.7558 89.3656 50.1456 90.3317Q49.5355 91.2977 48.9495 92.2786Q48.3634 93.2595 47.8018 94.2545Q47.2401 95.2496 46.7033 96.2582Q46.1664 97.2669 45.6547 98.2885Q45.1429 99.3102 44.6565 100.344Q44.1702 101.378 43.7095 102.424Q43.2489 103.469 42.8142 104.526Q42.3796 105.583 41.9712 106.65Q41.5628 107.717 41.1809 108.794Q40.799 109.871 40.4438 110.957Q40.0887 112.044 39.7604 113.138Q39.4322 114.233 39.1312 115.335C32.0258 141.621 34.502 173.32 48.2199 197.132Q48.7884 198.125 49.3813 199.104Q49.9741 200.082 50.5909 201.046Q51.2077 202.01 51.848 202.958Q52.4883 203.906 53.1519 204.838Q53.8154 205.77 54.5017 206.686Q55.188 207.601 55.8967 208.499Q56.6053 209.397 57.3359 210.278Q58.0665 211.158 58.8186 212.021Q59.5706 212.883 60.3437 213.726Q61.1168 214.57 61.9105 215.394Q62.7041 216.218 63.5178 217.022Q64.3315 217.826 65.1648 218.61Q65.9981 219.394 66.8505 220.157Q67.7029 220.92 68.5738 221.662Q69.4447 222.404 70.3336 223.124Q71.2226 223.844 72.129 224.542Q73.0354 225.24 73.9588 225.915Q74.8821 226.591 75.8218 227.243Q76.7616 227.895 77.7171 228.524Q78.6726 229.153 79.6433 229.759Q80.614 230.364 81.5994 230.945Q82.5848 231.526 83.5841 232.083Q84.5835 232.639 85.5963 233.171Q86.6091 233.703 87.6347 234.21Q88.6603 234.716 89.6981 235.197Q90.7359 235.679 91.7852 236.134Q92.8345 236.59 93.8947 237.019Q94.955 237.448 96.0255 237.852Q97.096 238.255 98.1761 238.631Q99.2562 239.008 100.345 239.358Q101.434 239.708 102.532 240.03Q103.629 240.353 104.734 240.649C133.898 248.445 163.023 242.896 188.752 227.982C189.143 205.22 188.957 182.305 188.658 159.543C181.826 158.884 174.839 159.093 167.975 159.062C158.425 158.951 140.562 160.74 132.159 158.72C129.574 158.098 127.464 156.048 126.128 153.841L127.055 152.52L125.872 152.725C125.868 152.643 125.854 152.561 125.86 152.479C125.921 151.689 126.329 150.951 126.895 150.411C129.067 148.337 132.306 147.558 135.2 147.151C142.419 146.135 150.377 146.81 157.672 146.852L188.148 146.732C191.257 146.733 197.046 146.445 199.327 148.876C202.388 152.137 201.081 224.698 200.635 233.555C187.452 246.407 162.709 253.956 144.772 255.747C114.512 258.767 83.9514 250.762 60.3245 231.363C39.1703 213.995 25.7893 186.88 23.1366 159.793C20.0764 128.546 26.9533 97.3082 47.1574 72.7746C66.5216 49.2608 93.8786 37.4624 123.698 34.5876Z"/>
	<path fill="#101010" d="M837.158 130.59C840.3 127.271 842.566 122.977 845.718 119.527C853.415 111.102 866.45 104.521 877.216 101.03C892.735 95.9975 909.673 95.9446 924.434 103.573C936.529 109.823 943.978 120.88 947.989 133.643Q949.345 138.032 950.167 142.552Q950.989 147.072 951.265 151.658C952.435 168.592 951.538 186.077 951.517 203.059C951.501 216.496 952.412 230.554 951.588 243.911C951.455 246.073 951.133 248.794 950.037 250.696C949.168 252.203 947.969 252.924 946.277 253.25C944.885 253.518 943.158 253.373 941.962 252.561C939.778 251.078 938.96 248.247 938.61 245.761C937.622 238.738 938.637 230.828 938.728 223.709C938.903 210.069 938.697 196.39 938.713 182.746C938.73 169.183 939.792 155.146 936.879 141.846C934.448 130.752 928.655 121.058 918.909 114.872C908.886 108.511 895.876 107.921 884.576 110.512Q882.692 110.95 880.839 111.508Q878.986 112.065 877.172 112.738Q875.359 113.412 873.591 114.199Q871.824 114.986 870.11 115.884Q868.396 116.782 866.742 117.787Q865.089 118.792 863.502 119.899Q861.916 121.007 860.403 122.213Q858.89 123.419 857.456 124.719C836.607 143.497 841.689 164.511 841.456 189.33C841.427 192.472 841.763 196.429 840.061 199.146C840.357 199.586 840.605 200.021 840.796 200.518C842.445 204.808 841.708 246.607 839.642 251.408C838.454 252.496 837.351 252.935 835.726 252.991C833.961 253.052 831.841 252.786 830.562 251.501C829.134 250.065 828.765 247.274 828.6 245.32C827.87 236.701 828.703 227.248 828.724 218.555L828.721 159.499C828.663 144.946 826.721 130.282 815.81 119.557C808.264 112.139 798.294 108.958 787.838 109.125C767.33 109.455 743.088 123.5 736.62 143.848C731.098 161.22 738.4 245.995 732.4 251.744C731.166 252.927 729.392 253.408 727.721 253.307C726.431 253.229 724.537 252.542 723.664 251.561C721.852 249.526 721.858 246.076 721.693 243.473C720.305 221.53 721.664 197.119 721.755 174.924C721.84 154.125 720.655 132.83 721.807 112.099C722.076 107.255 722.719 102.287 726.514 98.8749C727.61 98.6806 728.184 98.4391 729.24 98.9595C731.55 100.098 732.922 102.562 733.702 104.931C735.386 110.048 735.829 121.352 733.298 126.259C733.269 126.316 733.237 126.373 733.207 126.43C736.798 123.924 739.75 120.029 742.949 116.998C754.933 105.643 767.315 100.175 783.496 97.6494Q785.118 97.5346 786.743 97.4798C800.459 97.04 816.05 103.01 826.02 112.443C829.934 116.146 837.014 124.884 837.158 130.59Z"/>
	<path fill="#FEC142" d="M447.777 376.057C463.379 373.96 497.311 365.7 506.97 352.665C507.248 352.29 507.379 351.844 507.466 351.392C511.598 353.381 515.105 356.393 518.906 358.924C527.909 364.919 538.652 370.404 549.243 372.793C552.335 373.491 568.997 375.678 570.295 377.063C570.579 395.323 562.928 417.67 551.222 431.6C542.093 442.463 528.445 448.703 514.408 449.825C499.525 451.014 484.209 446.885 472.812 437.03C454.939 421.574 449.369 398.581 447.777 376.057Z"/>
	<path fill="#101010" d="M1055.33 94.8497C1073.52 93.1514 1093.08 97.676 1107.38 109.428C1122.46 121.827 1130.53 139.159 1132.38 158.408C1132.67 161.474 1133.04 166.713 1130.79 169.163C1129.44 170.635 1127.68 170.711 1125.82 170.87C1115.95 171.714 1105.34 170.948 1095.4 170.941L1038.69 170.917C1027.12 170.916 1015.44 170.586 1003.88 171.249C1005.49 175.376 1005.47 180.292 1005.95 184.67C1007.53 198.931 1011.79 212.05 1021.29 223.143C1032.36 236.082 1047.48 242.829 1064.27 244.083C1075.01 244.886 1090.89 244.545 1099.44 237.173C1110.98 233.464 1118.08 218.743 1125.06 216.432C1126.72 216.475 1128.17 216.917 1129.58 217.82C1130.49 218.403 1131.23 219.478 1131.43 220.527C1131.8 222.508 1130.63 224.601 1129.54 226.173C1119.84 240.187 1099.08 252.689 1082.7 255.683C1064.02 259.099 1040.48 253.579 1024.95 242.727C1008.52 231.244 998.046 213.335 994.544 193.755C990.384 170.5 994.031 144.122 1007.76 124.506C1019.33 107.961 1035.61 98.3261 1055.33 94.8497ZM1060.3 106.75C1044.58 108.149 1030.78 115.928 1020.67 127.946C1016.34 133.09 1012.44 139.294 1010.09 145.613C1008.53 149.799 1007.99 156.318 1005.28 159.715L1064.78 159.66L1119.05 159.697C1121.26 155.383 1118.8 148.349 1117.41 144.039C1113.09 130.731 1102.44 119.579 1090.07 113.322C1080.98 108.724 1070.51 106.176 1060.3 106.75Z"/>
	<path fill="#101010" d="M500.829 328.965C480.733 324.904 461.469 319.948 449.316 301.613C445.348 295.626 442.57 287.914 444.073 280.686C445.743 272.649 452.232 266.389 458.871 262.098C471.329 254.047 492.936 246.734 507.698 246.285C512.265 246.146 516.842 247 521.286 247.978C537.957 251.645 561.546 258.246 571.253 273.435C574.655 278.757 575.218 284.38 573.808 290.477C571.095 302.216 561.214 311.859 551.283 317.975C541.135 324.225 527.637 328.383 515.601 328.537C517.245 331.312 516.964 337.38 516.166 340.504C515.989 341.198 515.668 341.829 515.282 342.426C522.163 346.449 528.208 351.574 535.339 355.315C555.496 365.892 581.223 368.103 603.098 362.384C619.83 358.009 637.327 347.214 647.843 333.307C651.614 328.321 654.144 322.258 658.117 317.461C659.954 315.243 663.072 312.197 666.171 313.971C667.573 314.774 668.408 316.261 668.995 317.702C669.295 324.731 656.582 340.481 651.411 346.115C633.583 365.537 608.755 375.799 582.614 376.883C578.52 377.053 574.372 376.803 570.295 377.063C568.997 375.678 552.335 373.491 549.243 372.793C538.652 370.404 527.909 364.919 518.906 358.924C515.105 356.393 511.598 353.381 507.466 351.392C507.379 351.844 507.248 352.29 506.97 352.665C497.311 365.7 463.379 373.96 447.777 376.057C422.286 378.516 395.44 374.362 375.119 357.666C366.022 350.191 350.254 331.054 349.344 319.077C349.218 317.424 349.656 316.014 350.765 314.782C351.764 313.671 352.617 312.988 354.117 312.782C356.475 313.15 357.845 314.436 359.22 316.311C362.371 320.609 363.683 325.971 366.476 330.486C378.31 349.617 396.928 360.715 418.885 364.267C443.628 368.27 475.294 362.002 495.822 347.269C497.329 346.187 500.242 344.414 500.903 342.651C502.197 339.47 502.511 332.837 501.145 329.635C501.048 329.408 500.941 329.185 500.829 328.965Z"/>
	<path fill="#101010" d="M413.545 94.7703C432.43 93.3611 450.824 97.9605 465.923 109.766Q466.691 110.378 467.444 111.008Q468.197 111.638 468.934 112.287Q469.671 112.936 470.392 113.602Q471.113 114.269 471.817 114.953Q472.522 115.637 473.209 116.338Q473.896 117.039 474.566 117.757Q475.236 118.475 475.889 119.209Q476.541 119.943 477.175 120.693Q477.809 121.443 478.424 122.208Q479.039 122.974 479.636 123.754Q480.232 124.534 480.809 125.329Q481.386 126.123 481.943 126.932Q482.501 127.74 483.038 128.562Q483.575 129.384 484.092 130.219Q484.609 131.054 485.106 131.901Q485.602 132.748 486.077 133.608Q486.553 134.467 487.007 135.338Q487.461 136.208 487.894 137.09Q488.326 137.972 488.737 138.864Q489.148 139.755 489.537 140.657Q489.926 141.559 490.293 142.47Q490.659 143.381 491.003 144.301Q491.347 145.221 491.669 146.149Q491.99 147.077 492.289 148.012Q492.587 148.948 492.863 149.891Q493.139 150.833 493.391 151.782Q493.643 152.732 493.872 153.687Q494.101 154.642 494.306 155.602Q494.512 156.562 494.694 157.528Q494.875 158.493 495.033 159.462Q495.191 160.431 495.326 161.404Q495.46 162.377 495.57 163.353C498.321 185.855 493.33 209.795 479.176 227.818C466.219 244.316 448.895 253.574 428.054 256.016C407.148 256.77 389.34 253.12 372.618 239.593C356.21 226.32 346.766 206.437 344.573 185.666C342.23 163.463 347.554 140.016 361.771 122.474C374.914 106.258 392.898 96.8963 413.545 94.7703ZM412.812 106.665C396.64 108.424 382.114 116.647 371.914 129.317C359.324 144.954 354.72 165.349 356.917 185.082C358.95 203.341 367.473 220.143 381.894 231.722C395.187 242.395 411.645 245.834 428.346 244.206C445.778 241.478 459.8 234.233 470.376 219.628C482.565 202.793 485.97 180.949 482.611 160.69Q482.35 159.069 482.01 157.463Q481.67 155.857 481.252 154.269Q480.833 152.681 480.338 151.116Q479.842 149.551 479.27 148.012Q478.698 146.473 478.051 144.965Q477.404 143.456 476.684 141.98Q475.964 140.505 475.173 139.067Q474.381 137.628 473.52 136.231Q472.659 134.833 471.73 133.479Q470.801 132.126 469.807 130.819Q468.813 129.513 467.756 128.257Q466.699 127.001 465.582 125.798Q464.465 124.596 463.29 123.449Q462.115 122.303 460.885 121.216Q459.656 120.128 458.374 119.103Q457.092 118.077 455.762 117.116C443.737 108.575 427.51 104.492 412.812 106.665Z"/>
	<path fill="#101010" d="M447.818 191.902C451.336 191.722 454.383 191.697 457.647 193.172Q458.342 193.485 459.004 193.866Q459.665 194.246 460.285 194.69Q460.905 195.134 461.478 195.637Q462.051 196.14 462.572 196.698Q463.093 197.255 463.556 197.862Q464.018 198.468 464.419 199.117Q464.82 199.766 465.154 200.452Q465.489 201.138 465.754 201.853Q466.009 202.553 466.193 203.276Q466.376 203.998 466.488 204.735Q466.599 205.472 466.636 206.216Q466.673 206.961 466.636 207.705Q466.599 208.45 466.488 209.187Q466.377 209.924 466.194 210.646Q466.01 211.368 465.756 212.069Q465.501 212.769 465.178 213.441C462.903 218.132 459.183 220.423 454.415 222.084C451.231 222.304 448.35 222.243 445.349 221.043C441.579 219.536 438.491 216.654 436.933 212.882Q436.658 212.203 436.449 211.5Q436.241 210.798 436.102 210.078Q435.963 209.359 435.894 208.629Q435.825 207.9 435.827 207.167Q435.829 206.434 435.902 205.705Q435.974 204.976 436.118 204.257Q436.261 203.538 436.473 202.837Q436.685 202.136 436.964 201.458C439.046 196.413 442.966 193.925 447.818 191.902Z"/>
	<path fill="#101010" d="M398.548 114.932C408.097 114.404 416.504 115.04 424.938 120.109Q425.721 120.571 426.48 121.072Q427.24 121.572 427.974 122.11Q428.708 122.647 429.414 123.219Q430.121 123.792 430.798 124.399Q431.476 125.006 432.122 125.645Q432.769 126.285 433.384 126.955Q433.998 127.626 434.579 128.326Q435.16 129.026 435.706 129.753Q436.251 130.481 436.761 131.235Q437.27 131.989 437.741 132.766Q438.213 133.544 438.645 134.345Q439.078 135.145 439.471 135.965Q439.864 136.786 440.216 137.625Q440.567 138.463 440.878 139.319Q441.188 140.174 441.456 141.043Q441.723 141.912 441.948 142.794C444.455 153.014 443.277 163.984 437.743 173.02C431.591 183.064 422.537 188.35 411.328 191.051C402.003 192.444 392.284 190.843 384.269 185.769Q383.474 185.262 382.704 184.717Q381.935 184.172 381.193 183.589Q380.451 183.007 379.739 182.389Q379.026 181.771 378.345 181.119Q377.664 180.467 377.015 179.783Q376.366 179.098 375.752 178.382Q375.138 177.667 374.559 176.922Q373.98 176.177 373.439 175.405Q372.898 174.632 372.395 173.835Q371.892 173.037 371.428 172.215Q370.965 171.393 370.542 170.55Q370.12 169.707 369.739 168.844Q369.358 167.981 369.02 167.1Q368.682 166.22 368.388 165.324Q368.093 164.428 367.843 163.518Q367.593 162.609 367.387 161.688C365.228 151.691 366.729 140.818 372.33 132.178C378.587 122.526 387.506 117.308 398.548 114.932Z"/>
	<path fill="#101010" d="M595.856 94.849C616.855 93.5994 635.703 98.0361 652.235 111.521C668.267 124.598 677.903 144.586 679.992 164.999C682.297 187.519 677.02 211.419 662.477 229.153C649.52 244.953 632.058 253.981 611.711 255.993C593.704 257.553 575.57 253.388 560.812 242.738C543.324 230.12 532.699 211.061 529.341 189.92C525.842 167.898 530.383 143.792 543.617 125.638C556.526 107.929 574.378 98.2108 595.856 94.849ZM594.943 106.748C576.824 110.455 562.506 118.932 552.222 134.625C541.209 151.431 538.216 172.984 542.291 192.521C545.873 209.692 556.122 225.515 570.862 235.153Q571.982 235.87 573.131 236.538Q574.281 237.205 575.459 237.822Q576.636 238.44 577.839 239.005Q579.043 239.57 580.269 240.083Q581.496 240.595 582.744 241.054Q583.992 241.513 585.258 241.917Q586.525 242.321 587.808 242.669Q589.091 243.018 590.388 243.31Q591.684 243.603 592.993 243.839Q594.301 244.074 595.618 244.253Q596.936 244.432 598.259 244.553Q599.583 244.675 600.911 244.738Q602.239 244.802 603.568 244.808Q604.898 244.814 606.226 244.762Q607.554 244.71 608.879 244.601Q610.204 244.491 611.523 244.324C628.792 241.965 643.153 234.545 653.82 220.448C666.477 203.721 669.976 182.736 667.051 162.303Q666.823 160.663 666.514 159.036Q666.205 157.409 665.816 155.799Q665.428 154.189 664.961 152.6Q664.493 151.012 663.948 149.448Q663.403 147.884 662.782 146.349Q662.161 144.814 661.464 143.312Q660.768 141.809 659.999 140.343Q659.23 138.876 658.389 137.45Q657.549 136.023 656.639 134.639Q655.729 133.256 654.753 131.919Q653.776 130.582 652.734 129.294Q651.693 128.007 650.59 126.772Q649.486 125.538 648.323 124.359Q647.16 123.181 645.941 122.061Q644.721 120.941 643.448 119.883Q642.175 118.824 640.851 117.83C627.245 107.681 611.5 105.07 594.943 106.748Z"/>
	<path fill="#101010" d="M631.559 192.149C636.321 191.461 640.466 191.428 644.651 194.114Q645.3 194.523 645.906 194.996Q646.511 195.468 647.066 195.999Q647.62 196.53 648.119 197.113Q648.618 197.697 649.056 198.328Q649.494 198.958 649.867 199.63Q650.24 200.301 650.543 201.006Q650.846 201.712 651.078 202.444Q651.309 203.176 651.466 203.928C652.29 207.792 651.695 212.072 649.479 215.385C646.992 219.107 643.309 221.196 638.992 222.036C637.055 222.822 633.694 222.337 631.691 221.842C628.181 220.976 625.499 218.878 623.659 215.782Q623.232 215.072 622.878 214.322Q622.523 213.573 622.245 212.792Q621.967 212.012 621.768 211.207Q621.569 210.402 621.451 209.582Q621.333 208.762 621.298 207.934Q621.262 207.105 621.309 206.278Q621.356 205.45 621.484 204.632Q621.613 203.813 621.823 203.011C623.317 197.466 626.774 194.896 631.559 192.149Z"/>
	<path fill="#101010" d="M581.676 115.148C593.147 113.733 603.382 115.069 612.899 122.103C621.012 128.099 626.681 137.043 628.105 147.074C629.579 157.462 627.115 168.135 620.748 176.529Q620.196 177.249 619.61 177.942Q619.023 178.635 618.404 179.298Q617.785 179.961 617.134 180.594Q616.484 181.227 615.803 181.827Q615.122 182.427 614.414 182.993Q613.705 183.56 612.969 184.091Q612.234 184.623 611.473 185.118Q610.713 185.613 609.929 186.071Q609.146 186.528 608.341 186.947Q607.536 187.366 606.712 187.746Q605.888 188.125 605.046 188.464Q604.205 188.803 603.347 189.101Q602.49 189.399 601.62 189.654Q600.749 189.91 599.868 190.124Q598.986 190.337 598.094 190.507Q597.203 190.677 596.305 190.804Q594.816 191.06 593.311 191.2Q591.806 191.34 590.295 191.364Q588.785 191.387 587.276 191.294Q585.768 191.2 584.271 190.99Q582.775 190.78 581.299 190.455Q579.823 190.13 578.377 189.692Q576.931 189.254 575.523 188.706Q574.115 188.157 572.753 187.501Q571.917 187.085 571.101 186.629Q570.286 186.173 569.495 185.677Q568.703 185.181 567.937 184.647Q567.171 184.112 566.432 183.541Q565.693 182.969 564.983 182.362Q564.273 181.755 563.594 181.113Q562.915 180.472 562.268 179.798Q561.621 179.123 561.009 178.418Q560.396 177.713 559.819 176.978Q559.241 176.244 558.701 175.482Q558.161 174.719 557.659 173.932Q557.156 173.144 556.694 172.332Q556.231 171.52 555.809 170.687Q555.386 169.853 555.006 169Q554.625 168.147 554.287 167.276Q553.949 166.405 553.654 165.518Q553.345 164.618 553.081 163.705Q552.817 162.791 552.597 161.866Q552.378 160.941 552.204 160.006Q552.03 159.071 551.901 158.128Q551.773 157.186 551.691 156.238Q551.609 155.291 551.574 154.341Q551.538 153.39 551.549 152.439Q551.56 151.488 551.617 150.539Q551.675 149.59 551.778 148.644Q551.882 147.699 552.032 146.76Q552.181 145.82 552.377 144.89Q552.572 143.959 552.813 143.039Q553.053 142.119 553.339 141.211Q553.624 140.304 553.953 139.412Q554.282 138.52 554.655 137.645Q555.027 136.77 555.442 135.914C560.957 124.807 570.318 118.953 581.676 115.148Z"/>
</svg>
