<?xml version="1.0" encoding="utf-8" ?>
<svg xmlns="http://www.w3.org/2000/svg" xmlns:xlink="http://www.w3.org/1999/xlink" width="740" height="247">
	<path fill="white" d="M639.533 52.1805C641.929 52.04 645.866 51.8673 647.852 53.419C648.659 54.0495 648.848 54.9146 648.958 55.897C649.086 57.0398 648.755 57.5629 648.067 58.4062C645.649 59.7243 641.969 58.5033 639.351 58.1988C634.667 57.654 629.886 60.708 626.383 63.472C619.421 68.9657 613.988 77.9829 612.709 86.7809C611.979 91.8038 612.233 97.0146 612.254 102.077C612.277 107.6 612.21 113.12 612.28 118.643C612.325 122.215 612.665 126.092 612.225 129.626C612.022 131.253 611.545 132.547 610.22 133.571C609.315 133.89 608.671 133.94 607.734 133.685C604.112 132.698 606.525 128.461 605.087 126.038C605.049 125.974 605.008 125.912 604.969 125.849C605.303 125.313 605.503 124.784 605.554 124.154C606.034 118.26 605.602 111.975 605.592 106.043L605.608 73.8511C605.574 69.3881 604.714 60.4497 605.975 56.5398Q606.066 56.2672 606.209 56.0185Q606.353 55.7698 606.544 55.555Q606.735 55.3402 606.965 55.1683Q607.195 54.9963 607.455 54.8741C608.405 54.4281 609.151 54.4707 610.122 54.7922C611.043 55.4552 611.509 56.1356 611.861 57.2193C612.916 60.4646 612.797 70.7617 611.282 73.7855L611.214 73.9182C613.529 72.0108 616.933 65.1313 619.512 62.1556C624.808 56.0443 631.48 52.7523 639.533 52.1805Z"/>
	<path fill="white" d="M164.387 52.136C166.176 51.9681 168.781 52.0321 170.494 52.6498C171.459 52.9977 172.249 53.6026 172.671 54.555C173.064 55.4436 173.092 56.993 172.72 57.8831C171.546 60.6897 166.45 58.1778 164.255 58.087C161.868 57.9884 159.347 58.5084 157.143 59.4108C147.145 63.506 139.037 75.1082 137.098 85.57C135.604 93.6301 136.487 111.341 136.53 120.397C136.547 123.86 137.254 128.55 135.842 131.752C135.305 132.971 134.601 133.679 133.369 134.161C132.356 134.069 131.857 134.013 131.096 133.239C129.252 131.363 129.665 128.517 129.716 126.118L129.72 81.5278C129.72 74.5303 129.375 67.3915 129.684 60.4102C129.76 58.6976 129.905 56.0919 131.341 54.9099C131.871 54.4733 132.454 54.2878 133.133 54.3589C133.899 54.4392 134.619 55.009 135.088 55.5911C137.884 59.0593 136.599 69.8009 136.169 74.168C138.064 70.0363 140.192 66.168 143.182 62.7166C148.867 56.155 155.755 52.7358 164.387 52.136Z"/>
	<path fill="white" d="M666.417 52.1804C666.905 52.169 667.438 52.1417 667.919 52.2252C668.877 52.3913 669.767 52.968 670.156 53.8878C671.209 56.3741 670.606 61.5708 670.606 64.3044L670.548 92.4851C670.517 98.6611 670.047 105.205 671.031 111.32C671.644 115.129 672.851 118.901 675.138 122.05C678.078 126.098 682.361 128.166 687.237 128.898Q687.954 129.009 688.676 129.084Q689.397 129.158 690.121 129.197Q690.846 129.236 691.571 129.238Q692.297 129.24 693.021 129.206Q693.746 129.172 694.468 129.102Q695.19 129.032 695.908 128.925Q696.625 128.819 697.337 128.677Q698.048 128.535 698.752 128.357Q699.455 128.18 700.149 127.967Q700.842 127.755 701.524 127.508Q702.206 127.261 702.875 126.98Q703.544 126.699 704.198 126.386Q704.852 126.072 705.489 125.726Q706.127 125.379 706.746 125.002Q707.365 124.624 707.965 124.216Q708.565 123.808 709.143 123.37C712.85 120.599 717.069 116.341 718.773 111.953C721.534 104.84 720.3 75.5822 720.251 66.1587C720.232 62.5661 719.907 58.5989 720.455 55.0442C720.616 54.0046 720.818 53.2536 721.72 52.6391C722.411 52.1688 723.395 51.9566 724.213 52.1506C725.024 52.3426 725.947 53.0128 726.347 53.7482C727.522 55.9106 727.149 123.187 726.768 129.864C726.568 133.364 726.034 136.805 724.965 140.153C723.3 145.372 719.232 153.993 714.116 156.639C713.872 157.261 713.125 157.823 712.608 158.24C704.404 164.854 693.315 166.466 683.105 165.309C677.661 164.692 668.841 162.777 665.411 158.236C664.865 157.512 664.69 156.61 664.83 155.722C664.965 154.868 665.456 154.041 666.182 153.563C666.803 153.155 667.528 153.034 668.256 153.169C672.102 153.882 676.908 157.735 681.419 158.743C689.414 160.528 698.72 159.71 705.716 155.27C712.915 150.7 717.427 143.177 719.277 134.972C719.931 132.075 721.276 121.729 719.861 119.49C719.822 120.006 719.697 120.458 719.451 120.916C716.244 126.875 708.155 132.18 701.799 134.092C693.956 136.45 684.257 136.277 676.944 132.312C671.286 129.245 667.342 123.907 665.528 117.788C664.541 114.455 664.101 110.949 663.901 107.485C663.611 102.438 663.212 55.3707 664.19 53.6957C664.729 52.7707 665.418 52.4563 666.417 52.1804Z"/>
	<path fill="#FEC142" d="M263.79 183.98C269.374 187.309 272.443 190.78 278.942 193.258C281.625 194.282 294.118 196.615 294.759 197.152C293.879 198.181 293.078 207.553 292.466 209.91C290.956 215.719 288.403 221.542 284.431 226.086Q284.016 226.568 283.578 227.029Q283.14 227.49 282.679 227.928Q282.218 228.366 281.735 228.781Q281.253 229.195 280.75 229.585Q280.248 229.974 279.726 230.338Q279.204 230.702 278.665 231.039Q278.126 231.376 277.57 231.686Q277.014 231.996 276.444 232.277Q275.873 232.558 275.289 232.81Q274.706 233.063 274.11 233.285Q273.514 233.508 272.907 233.7Q272.301 233.892 271.686 234.054Q271.07 234.215 270.448 234.346Q269.825 234.476 269.197 234.575Q268.568 234.674 267.936 234.741Q267.303 234.809 266.668 234.844C259.177 235.332 252.445 233.553 246.773 228.522C237.781 220.547 235.055 208.123 234.364 196.64C241.916 195.114 258.988 191.259 263.483 184.685C263.626 184.475 263.717 184.221 263.79 183.98Z"/>
	<path fill="white" d="M65.372 21.4274C72.1425 20.6013 79.3574 21.4303 86.005 22.7315C91.0039 23.7099 100.872 26.8468 103.707 31.2253C104.24 32.0498 104.619 32.9933 104.396 33.9798C104.27 34.5344 103.928 34.9256 103.422 35.1982C100.326 36.8675 89.7854 30.962 86.0823 29.8803C73.1238 26.0951 58.0723 27.6437 46.2329 34.1273Q45.2178 34.6826 44.2314 35.2874Q43.245 35.8922 42.2898 36.5452Q41.3346 37.1981 40.413 37.8975Q39.4913 38.5969 38.6055 39.3411Q37.7197 40.0853 36.8718 40.8725Q36.0239 41.6596 35.2161 42.4878Q34.4083 43.3159 33.6426 44.183Q32.8768 45.0502 32.155 45.9542Q31.4331 46.8581 30.757 47.7967Q30.0808 48.7353 29.4521 49.7063Q28.8233 50.6772 28.2434 51.6781Q27.6635 52.679 27.134 53.7073Q26.6044 54.7357 26.1265 55.789Q25.6486 56.8423 25.2234 57.918Q24.7983 58.9936 24.427 60.0891Q24.0557 61.1845 23.7392 62.2969C19.8541 75.7212 20.9306 91.9765 27.7529 104.305Q28.311 105.321 28.9189 106.309Q29.5269 107.296 30.1832 108.252Q30.8395 109.208 31.5425 110.131Q32.2456 111.053 32.9937 111.939Q33.7417 112.825 34.5329 113.673Q35.3242 114.521 36.1566 115.328Q36.989 116.136 37.8606 116.901Q38.7321 117.666 39.6407 118.387Q40.5492 119.108 41.4925 119.783Q42.4358 120.458 43.4115 121.085Q44.3872 121.712 45.3929 122.29Q46.3986 122.868 47.4318 123.395Q48.465 123.923 49.5231 124.398Q50.5813 124.873 51.6618 125.295Q52.7422 125.717 53.8424 126.085Q54.9425 126.453 56.0596 126.766C71.539 131.199 86.0619 128.305 99.8926 120.648C100.323 109.038 99.8255 97.3135 99.9659 85.6825L89.4287 85.6632C84.8959 85.7046 73.5361 86.7187 69.8869 84.816C69.1892 84.4522 68.4091 83.7897 68.2057 82.9935C68.0108 82.2307 68.0963 81.5213 68.5409 80.8723C69.2969 79.7688 70.9884 79.3149 72.2487 79.1054C77.6346 78.2101 86.2454 78.9967 91.9062 79.0368C95.3887 79.0615 99.0082 78.6766 102.47 79.0096C103.683 79.1263 104.728 79.3616 105.737 80.088C107.35 82.4121 106.619 118.248 106.468 123.577C99.9474 130.187 87.6792 134.017 78.6193 135.158C63.1871 137.101 47.6025 133.302 35.3069 123.723C23.9161 114.849 16.8614 101.542 15.1011 87.2977C13.1041 71.1378 16.2267 54.994 26.4038 42.0111C36.153 29.574 49.9576 23.3155 65.372 21.4274Z"/>
	<path fill="white" d="M402.778 53.9859C409.156 53.1847 415.637 54.0375 421.342 57.0962C426.229 59.7168 431.301 64.9113 432.943 70.3166C436.26 65.3194 440.035 61.7128 445.343 58.7902C453.62 54.2333 463.826 52.1484 473.043 54.857C479.289 56.6924 484.31 60.8453 487.402 66.5581C489.385 70.2229 490.696 74.6925 491.207 78.802C491.729 83.0023 492.079 129.092 491.23 131.644C490.954 132.475 490.412 133.148 489.622 133.538C488.501 134.091 487.338 133.878 486.213 133.481C485.493 132.927 485.123 132.449 484.958 131.54C484.331 128.099 484.767 123.85 484.771 120.313L484.807 97.2292C484.813 90.543 485.32 83.3765 483.77 76.8402C482.468 71.3476 479.74 66.1098 474.802 63.1009C469.416 59.8185 462.548 59.4819 456.53 60.9472C451.419 62.1916 446.91 64.7191 443.038 68.2554C432.411 77.9624 435.602 87.1652 435.171 99.7069C435.12 101.183 435.2 102.889 434.41 104.181C435.524 105.957 435.338 128.335 434.791 131.419C434.659 132.162 434.332 132.816 433.686 133.239C432.814 133.811 431.529 133.92 430.53 133.683C429.519 133.444 428.883 132.717 428.612 131.732C427.618 128.128 428.163 123.361 428.169 119.593L428.224 94.1966C428.235 89.23 428.592 83.8396 427.857 78.9339C427.32 75.3516 426.247 71.6877 424.327 68.5907C421.845 64.5861 418.035 61.7989 413.434 60.7448C406.509 59.1584 398.389 60.6759 392.401 64.4421C387.48 67.5378 383.3 72.2738 381.419 77.8237C379.02 84.9045 380.193 111.395 380.208 120.348C380.214 123.783 380.708 128.143 379.866 131.446C379.621 132.407 378.943 133.364 378.058 133.834C377.42 134.172 376.748 134.255 376.062 134.014C375.145 133.691 374.525 133.006 374.116 132.145C373.634 131.129 373.413 129.977 373.356 128.86C373.194 125.707 373.45 122.426 373.454 119.254L373.464 96.0686L373.465 71.7591C373.463 67.9981 373.244 64.1643 373.433 60.4118C373.501 59.0563 373.665 57.6216 374.132 56.3379C374.562 55.1518 375.051 54.633 376.16 54.117C376.623 54.1408 377.094 54.1859 377.518 54.3892C378.502 54.8615 379.511 55.6676 379.866 56.7342C380.651 59.0892 380.751 66.1022 379.629 68.3873C379.614 68.4176 379.599 68.4476 379.583 68.4778C381.21 67.2364 382.587 65.4205 384.068 63.9788C389.601 58.593 395.24 55.5831 402.778 53.9859Z"/>
	<path fill="white" d="M546.445 52.1805Q546.956 52.1526 547.468 52.139C557.052 51.8856 566.443 54.8018 573.447 61.5038C579.992 67.7676 584.473 77.5327 584.602 86.682C584.62 87.9751 584.477 89.6696 583.517 90.6222C582.696 91.4367 581.634 91.5559 580.524 91.6597C573.71 92.2964 566.523 91.8219 559.664 91.8208L518.472 91.7941C519.904 94.3813 519.345 99.3019 519.906 102.305C521.504 110.85 526.323 118.838 533.563 123.734C540.873 128.677 550.855 130.167 559.45 128.473C561.852 128 567.018 126.774 568.468 124.626C573.11 123.025 577.169 115.307 580.917 114.824C581.619 114.734 582.086 114.896 582.639 115.326C583.192 115.757 583.682 116.543 583.758 117.246C583.912 118.667 582.472 120.445 581.613 121.49C575.726 128.658 566.097 134.511 556.843 135.391C546.103 136.413 535.007 133.632 526.627 126.675C518.418 119.859 513.903 110.271 512.916 99.7651C511.75 87.3471 513.927 74.6892 522.129 64.8758C528.414 57.3565 536.72 53.0788 546.445 52.1805ZM546.948 58.6804C538.05 60.3628 530.461 64.2457 525.265 71.9112C524.142 73.5677 523.076 75.3746 522.327 77.2331C521.343 79.6739 520.788 83.5171 519.207 85.5016L549.851 85.4745L577.394 85.4829C578.347 82.1418 576.258 76.5216 574.642 73.6373C570.692 66.5898 563.867 61.9263 556.182 59.7845C553.147 58.9386 550.099 58.4745 546.948 58.6804Z"/>
	<path fill="white" d="M260.001 172.735C249.657 170.841 239.962 168.08 233.618 158.861C231.398 155.635 230.098 151.658 230.871 147.736C231.697 143.545 235.212 140.347 238.627 138.104C247.173 132.493 260.777 128.662 270.829 130.787C279.251 132.567 291.321 136.288 296.232 143.805C297.947 146.429 298.542 149.405 297.892 152.477C296.646 158.369 291.753 163.64 286.834 166.819C280.999 170.589 274.706 171.887 267.942 172.707C267.958 172.737 267.975 172.766 267.99 172.796C269.126 174.929 267.924 176.824 268.377 178.918C269.172 182.591 280.502 187.241 284.189 188.399C296.085 192.135 309.995 192.185 321.232 186.312C327.926 182.812 333.149 177.739 337.337 171.515C338.72 169.46 340.025 166.923 341.768 165.174C342.552 164.388 343.257 164.141 344.33 164.455C345.338 164.75 346.054 165.606 346.575 166.466C347.043 168.452 345.868 170.062 344.868 171.679C337.376 183.799 327.179 192.64 313.046 195.967C306.951 197.402 300.984 197.334 294.759 197.152C294.118 196.615 281.625 194.282 278.942 193.258C272.443 190.78 269.374 187.309 263.79 183.98C263.717 184.221 263.626 184.475 263.483 184.685C258.988 191.259 241.916 195.114 234.364 196.64C222.537 199.258 208.46 196.097 198.362 189.668C192.273 185.79 183.789 175.728 182.231 168.54C182.015 167.542 182.004 166.45 182.571 165.559C183.094 164.736 183.904 164.405 184.784 164.078C186.184 164.325 187.097 165.44 187.873 166.548C189.623 169.049 190.758 171.981 192.407 174.56C198.015 183.335 206.626 188.412 216.786 190.228C229.555 192.512 246.392 189.696 257.126 182.169C258.074 181.504 259.713 180.458 260.045 179.301C260.46 177.897 260.871 174.169 260.106 172.895C260.073 172.841 260.036 172.789 260.001 172.735ZM261.766 134.511C253.7 136.201 240.824 138.941 236.011 146.328C235.407 147.255 234.948 148.235 234.536 149.261C235.528 154.841 238.372 159.024 243.026 162.278C249.638 166.901 257.537 168.511 265.486 168.385C274.289 168.142 283.272 165.485 289.497 158.946C291.742 156.588 293.844 153.462 293.787 150.076C293.746 147.641 292.501 145.592 290.772 143.965C285.412 138.925 270.791 134.17 263.387 134.42Q262.576 134.449 261.766 134.511Z"/>
	<path fill="white" d="M218.091 52.15C228.051 51.9309 237.332 55.2701 244.706 62.0268C253.072 69.6924 257.431 80.2485 257.894 91.4727C258.378 103.217 255.078 114.744 246.978 123.502C239.955 131.095 230.637 135.134 220.363 135.558C209.886 135.615 200.641 132.868 192.787 125.673C184.377 117.969 180.115 107.395 179.642 96.1312C179.154 84.515 182.418 73.1028 190.423 64.4351C197.87 56.3707 207.274 52.6081 218.091 52.15ZM207.737 62.9293C202.139 64.1029 197.629 66.748 194.466 71.6252Q194.201 72.0338 193.957 72.455Q193.713 72.8763 193.49 73.3091Q193.268 73.742 193.066 74.1853Q192.865 74.6287 192.687 75.0815Q192.508 75.5343 192.352 75.9955Q192.196 76.4566 192.063 76.9249Q191.93 77.3932 191.821 77.8675Q191.711 78.3419 191.626 78.821Q191.54 79.3002 191.478 79.783Q191.417 80.2659 191.379 80.7512Q191.341 81.2365 191.328 81.7231Q191.314 82.2097 191.325 82.6963Q191.336 83.183 191.37 83.6685Q191.405 84.154 191.464 84.6372Q191.523 85.1203 191.606 85.6Q191.689 86.0797 191.796 86.5546C192.894 91.5682 195.965 96.1601 200.308 98.9289C204.415 101.548 209.092 102.23 213.877 101.717C219.419 100.603 223.99 98.0681 227.19 93.2911Q227.729 92.4764 228.186 91.6131Q228.643 90.7497 229.013 89.8459Q229.384 88.9421 229.664 88.0064Q229.945 87.0708 230.132 86.1122Q230.32 85.1537 230.413 84.1814Q230.506 83.2092 230.504 82.2325Q230.502 81.2558 230.404 80.284Q230.306 79.3121 230.114 78.3545Q230.018 77.8799 229.898 77.4105Q229.778 76.9412 229.635 76.4784Q229.493 76.0155 229.327 75.5603Q229.162 75.105 228.974 74.6585Q228.787 74.2119 228.577 73.7752Q228.368 73.3384 228.137 72.9125Q227.906 72.4866 227.655 72.0726Q227.403 71.6586 227.132 71.2575Q226.86 70.8564 226.569 70.4692Q226.278 70.0819 225.968 69.7095Q225.658 69.3371 225.33 68.9804Q225.003 68.6237 224.658 68.2836Q224.313 67.9435 223.951 67.6208Q223.59 67.2982 223.213 66.9937Q222.836 66.6892 222.445 66.4037Q222.053 66.1182 221.648 65.8523C217.384 63.0238 212.733 62.4023 207.737 62.9293ZM233.54 102.279C231.165 102.906 229.214 103.945 227.925 106.146Q227.736 106.474 227.58 106.82Q227.424 107.165 227.302 107.524Q227.181 107.883 227.096 108.252Q227.01 108.621 226.961 108.996Q226.913 109.372 226.901 109.751Q226.889 110.129 226.915 110.507Q226.941 110.885 227.003 111.259Q227.066 111.632 227.165 111.998Q227.265 112.374 227.402 112.738Q227.539 113.102 227.71 113.451Q227.881 113.8 228.086 114.13Q228.29 114.461 228.526 114.77Q228.762 115.079 229.027 115.364Q229.292 115.649 229.583 115.907Q229.874 116.164 230.189 116.393Q230.504 116.621 230.84 116.817C232.494 117.781 234.3 117.876 236.169 117.824C238.763 116.774 240.747 115.534 241.879 112.864Q242.027 112.519 242.14 112.161Q242.253 111.803 242.33 111.436Q242.407 111.068 242.446 110.695Q242.486 110.321 242.488 109.946Q242.49 109.571 242.454 109.197Q242.418 108.823 242.345 108.455Q242.273 108.087 242.163 107.728Q242.054 107.368 241.909 107.022C241.085 105.024 239.47 103.627 237.498 102.829C236.209 102.307 234.914 102.231 233.54 102.279Z"/>
	<path fill="white" d="M311.566 52.1802Q312.048 52.1486 312.531 52.1409C322.916 51.9585 332.467 55.3869 339.966 62.6792C348.241 70.7269 352.327 81.6749 352.5 93.0898C352.675 104.681 349.032 115.746 340.812 124.179C333.665 131.511 324.482 135.393 314.265 135.546C304.488 135.697 295.56 132.853 288.127 126.387Q287.373 125.725 286.652 125.026Q285.931 124.327 285.245 123.594Q284.559 122.861 283.91 122.096Q283.261 121.33 282.651 120.533Q282.04 119.737 281.469 118.911Q280.898 118.086 280.368 117.233Q279.839 116.381 279.351 115.503Q278.864 114.626 278.42 113.725Q277.977 112.825 277.578 111.904Q277.179 110.983 276.825 110.044Q276.472 109.105 276.165 108.149Q275.858 107.194 275.598 106.224Q275.339 105.255 275.127 104.274Q274.915 103.293 274.752 102.303Q274.588 101.313 274.473 100.316Q274.359 99.3188 274.293 98.3174C273.447 86.0695 276.18 74.4421 284.445 65.013C291.563 56.8937 300.943 52.9 311.566 52.1802ZM305.091 62.6524C299.132 63.3784 294.292 65.4169 290.479 70.248C287.198 74.4053 285.89 79.6034 286.525 84.8374C287.135 89.8585 289.682 94.6213 293.686 97.7468C297.103 100.414 301.287 101.771 305.593 101.908C311.294 101.732 316.088 100.143 320.094 95.9189Q320.434 95.5633 320.756 95.1914Q321.077 94.8194 321.38 94.432Q321.683 94.0445 321.966 93.6426Q322.25 93.2406 322.513 92.8251Q322.776 92.4097 323.018 91.9817Q323.26 91.5537 323.481 91.1143Q323.702 90.6748 323.9 90.225Q324.099 89.7751 324.275 89.316Q324.451 88.8569 324.604 88.3897Q324.757 87.9224 324.887 87.4482Q325.017 86.9739 325.123 86.4938Q325.229 86.0137 325.311 85.5289Q325.393 85.0441 325.451 84.5559Q325.509 84.0677 325.543 83.5771Q325.577 83.0866 325.586 82.595Q325.596 82.1035 325.581 81.612Q325.567 81.1288 325.53 80.6469Q325.492 80.1649 325.431 79.6854Q325.37 79.2059 325.284 78.7301Q325.199 78.2542 325.091 77.7832Q324.982 77.3122 324.85 76.8471Q324.718 76.3821 324.563 75.9241Q324.408 75.4662 324.231 75.0165Q324.053 74.5668 323.853 74.1265Q323.654 73.6862 323.433 73.2563Q323.211 72.8264 322.969 72.4081Q322.727 71.9897 322.464 71.5839Q322.201 71.1781 321.919 70.7858Q321.636 70.3935 321.334 70.0157Q321.032 69.6379 320.712 69.2756Q320.392 68.9132 320.054 68.5672Q319.717 68.2212 319.362 67.8924Q318.656 67.2366 317.889 66.6529Q317.121 66.0692 316.301 65.5633Q315.48 65.0573 314.614 64.6338Q313.748 64.2104 312.845 63.8735Q311.942 63.5367 311.01 63.2897Q310.078 63.0426 309.126 62.8878Q308.175 62.7329 307.213 62.6717Q306.251 62.6105 305.287 62.6436L305.091 62.6524ZM328.193 102.374C325.836 103.148 324.103 104.133 322.939 106.45Q322.75 106.82 322.6 107.207Q322.449 107.594 322.337 107.994Q322.226 108.395 322.155 108.804Q322.084 109.213 322.054 109.627Q322.023 110.042 322.035 110.457Q322.046 110.872 322.099 111.284Q322.151 111.696 322.245 112.101Q322.338 112.506 322.471 112.899C323.071 114.704 324.233 116.086 325.949 116.937C327.298 117.607 328.753 117.855 330.25 117.709C332.443 117.521 334.452 116.573 335.868 114.847Q336.102 114.557 336.306 114.246Q336.51 113.934 336.682 113.604Q336.854 113.273 336.992 112.927Q337.13 112.581 337.233 112.224Q337.336 111.866 337.403 111.499Q337.47 111.133 337.5 110.762Q337.53 110.39 337.523 110.018Q337.515 109.646 337.471 109.276Q337.43 108.895 337.351 108.519Q337.273 108.144 337.157 107.778Q337.042 107.412 336.891 107.06Q336.74 106.707 336.555 106.371Q336.37 106.035 336.152 105.719Q335.935 105.403 335.687 105.11Q335.439 104.818 335.164 104.551Q334.889 104.283 334.588 104.045C332.72 102.553 330.524 102.152 328.193 102.374Z"/>
</svg>
